<svg enable-background="new 0 0 168 168" height="168" viewBox="0 0 168 168" width="168" xmlns="http://www.w3.org/2000/svg"><path d="M117.898,59.708h-12.196v-2.603c0-4.312-1.747-7.807-3.902-7.807h-32.2c-2.154,0-3.902,3.494-3.902,7.807v2.603H53.498  c-4.311,0-7.806,3.495-7.806,7.806l-0.001,42.612c0,4.309,3.495,7.806,7.806,7.806h64.4c4.311,0,7.806-3.497,7.806-7.806  l0.002-42.612C125.705,63.203,122.208,59.708,117.898,59.708z M85.537,106.223c-9.431,0-17.076-7.646-17.076-17.077  c0.001-9.432,7.646-17.077,17.076-17.077c9.431,0,17.075,7.646,17.074,17.077C102.611,98.579,94.966,106.223,85.537,106.223z" fill="param(fill)" fill-opacity="param(fill-opacity)" stroke="param(outline)" stroke-opacity="param(outline-opacity)" stroke-width="param(outline-width)"/></svg>